<?xml version="1.0" encoding="utf-8"?>
<!-- Generator: Adobe Illustrator 22.0.1, SVG Export Plug-In . SVG Version: 6.00 Build 0)  -->
<!DOCTYPE svg PUBLIC "-//W3C//DTD SVG 1.1//EN" "http://www.w3.org/Graphics/SVG/1.1/DTD/svg11.dtd">
<svg version="1.1" id="_ÎÓÈ_3" xmlns="http://www.w3.org/2000/svg" xmlns:xlink="http://www.w3.org/1999/xlink" x="0px" y="0px"
	 viewBox="0 0 384.3 289.4" style="enable-background:new 0 0 384.3 289.4;" xml:space="preserve">
<style type="text/css">
	.st0{fill:#FD9834;}
</style>
<title>POS</title>
<path class="st0" d="M62.8,195.5c-3,0-5.5-2.5-5.5-5.5c0-2.6,1.8-4.8,4.3-5.3l161.1-36.4c3-0.7,5.9,1.2,6.6,4.2
	c0.7,3-1.2,5.9-4.1,6.6L64.1,195.3C63.7,195.4,63.2,195.5,62.8,195.5z"/>
<path class="st0" d="M53.8,161c-3,0-5.5-2.4-5.5-5.5c0-2.6,1.8-4.8,4.3-5.4l161.1-36.3c3-0.7,5.9,1.2,6.6,4.2c0.7,3-1.2,5.9-4.1,6.6
	L55,160.8C54.7,160.9,54.2,161,53.8,161z"/>
<path class="st0" d="M70.9,228.5c-3,0-5.5-2.4-5.5-5.5c0-2.6,1.8-4.8,4.3-5.4l33.2-7.5c3-0.7,5.9,1.2,6.6,4.1c0.7,3-1.2,5.9-4.1,6.6
	l0,0l-33.2,7.5C71.7,228.5,71.3,228.5,70.9,228.5z M123.4,216.6c-3,0-5.5-2.5-5.5-5.5c0-2.6,1.8-4.8,4.3-5.3l33.2-7.5
	c3-0.7,5.9,1.1,6.6,4.1s-1.1,5.9-4.1,6.6c0,0-0.1,0-0.1,0l-33.2,7.5C124.2,216.6,123.8,216.6,123.4,216.6z M176,204.8
	c-3,0-5.5-2.5-5.5-5.5c0-2.6,1.8-4.8,4.3-5.4l33.2-7.5c3-0.7,5.9,1.1,6.6,4.1s-1.1,5.9-4.1,6.6c0,0-0.1,0-0.1,0l-33.2,7.5
	C176.8,204.7,176.4,204.8,176,204.8z M228.5,192.9c-3,0-5.5-2.5-5.5-5.5c0-2.6,1.8-4.8,4.3-5.4l3.5-0.8c3-0.7,5.9,1.2,6.6,4.2
	c0.7,3-1.2,5.9-4.1,6.6l-3.5,0.8C229.3,192.9,228.9,192.9,228.5,192.9L228.5,192.9z"/>
<path class="st0" d="M56.8,289.4c-12.6,0-23.4-8.7-26.2-20.9l-30-131.9c-3.3-14.5,5.8-28.8,20.2-32.1l300.7-68.3
	c14.4-3.3,28.8,5.8,32.1,20.2l30,131.9c3.3,14.5-5.8,28.8-20.2,32.1L62.8,288.7C60.8,289.2,58.8,289.4,56.8,289.4z M327.5,46.4
	c-1.2,0-2.4,0.1-3.5,0.4L23.3,115.1c-8.5,1.9-13.9,10.4-11.9,19c0,0,0,0,0,0l30,131.9c1.6,7.2,8,12.3,15.4,12.3
	c1.2,0,2.4-0.1,3.5-0.4L361,209.6c8.5-2,13.9-10.5,11.9-19L343,58.8C341.4,51.5,334.9,46.4,327.5,46.4L327.5,46.4z"/>
<path class="st0" d="M45.8,108.9c-3.1,0-5.7-2.5-5.7-5.7c0-2.3,1.4-4.4,3.6-5.3l246-96.2c6.5-2.5,13.7-2.2,20,0.8
	c6.4,3,11.3,8.4,13.8,15l5.9,15.1c1.1,2.9-0.3,6.2-3.2,7.3c-2.9,1.1-6.2-0.3-7.4-3.2l0,0l-5.9-15.1c-1.5-3.9-4.4-7.1-8.2-8.9
	c-3.4-1.7-7.4-1.9-11-0.5l-246,96.2C47.2,108.7,46.5,108.9,45.8,108.9z"/>
<path class="st0" d="M257.8,75.5c-2.6,0-4.8-1.8-5.4-4.3l-2.9-12.7c-0.7-3,1.2-5.9,4.1-6.6c3-0.7,5.9,1.2,6.6,4.1l2.9,12.6
	c0.7,3-1.2,5.9-4.1,6.6c0,0,0,0,0,0C258.7,75.5,258.2,75.5,257.8,75.5z"/>
<path class="st0" d="M283.8,189.6c-2.6,0-4.8-1.8-5.4-4.3l-6.4-28.3c-0.8-2.9,1-5.9,3.9-6.7s5.9,1,6.7,3.9c0,0.1,0.1,0.2,0.1,0.3
	l6.4,28.3c0.7,3-1.2,5.9-4.1,6.6C284.6,189.6,284.2,189.6,283.8,189.6z M270.9,133.1c-2.6,0-4.8-1.8-5.3-4.3l-6.4-28.3
	c-0.7-3,1.2-5.9,4.1-6.6c3-0.7,5.9,1.2,6.6,4.1l6.4,28.3c0.7,3-1.2,5.9-4.1,6.6c0,0,0,0,0,0C271.7,133,271.3,133.1,270.9,133.1
	L270.9,133.1z"/>
<path class="st0" d="M294.2,235.5c-2.6,0-4.8-1.8-5.4-4.3l-2.9-12.7c-0.7-3,1.2-5.9,4.1-6.6c3-0.7,5.9,1.2,6.6,4.1l2.9,12.7
	c0.7,3-1.2,5.9-4.1,6.6C295,235.4,294.6,235.5,294.2,235.5z"/>
<path class="st0" d="M308.1,168.1c-3,0-5.5-2.4-5.7-5.4l-0.8-14.9l-12.8-7.8c-2.7-1.6-3.5-5.1-1.9-7.8c0.6-1.1,1.6-1.9,2.8-2.3
	l14-5.4l3.5-14.6c0.7-3,3.8-4.9,6.8-4.2c1.2,0.3,2.3,1,3.1,1.9l9.4,11.6l14.9-1.2c3.1-0.2,5.9,2.1,6.1,5.2c0.1,1.2-0.2,2.5-0.9,3.5
	l-8.1,12.6l5.7,13.8c1.2,2.9-0.2,6.2-3.1,7.4c-1.1,0.5-2.4,0.6-3.6,0.2l-14.5-3.9l-11.4,9.7C310.8,167.6,309.4,168.1,308.1,168.1z
	 M304.6,136.3l5.5,3.4c1.6,1,2.6,2.7,2.7,4.5l0.3,6.4l4.9-4.2c1.4-1.2,3.3-1.7,5.1-1.2l6.2,1.7l-2.5-6c-0.7-1.7-0.5-3.7,0.5-5.3
	l3.5-5.4l-6.4,0.5c-1.9,0.1-3.7-0.6-4.9-2.1l-4.1-5l-1.5,6.3c-0.4,1.8-1.7,3.3-3.5,4L304.6,136.3z"/>
</svg>
